<svg width="72" height="72" viewBox="0 0 72 72" fill="none" xmlns="http://www.w3.org/2000/svg">
<g filter="url(#filter0_dd)">
<rect x="6" y="2" width="60" height="60" rx="14" fill="url(#paint0_linear)"/>
</g>
<path fill-rule="evenodd" clip-rule="evenodd" d="M51.7308 25.2732H21.2692C20.5683 25.2732 20 24.7072 20 24.0091V13.2641C20 12.566 20.5683 12 21.2692 12H26.9808C27.6817 12 28.25 12.566 28.25 13.2641V17.0565H31.4231V13.2641C31.4231 12.566 31.9913 12 32.6923 12H40.3077C41.0087 12 41.5769 12.566 41.5769 13.2641V17.0565H44.75V13.2641C44.75 12.566 45.3183 12 46.0192 12H51.7308C52.4317 12 53 12.566 53 13.2641V24.0091C53 24.7072 52.4317 25.2732 51.7308 25.2732ZM23.8077 29.0655V27.8014C23.8077 27.4568 24.0943 27.1694 24.4479 27.1694H48.5521C48.9072 27.1694 49.1923 27.4523 49.1923 27.8014V29.0655C46.918 29.0659 44.8765 30.0591 43.481 31.6335C42.0854 30.0586 40.0432 29.0655 37.7678 29.0655H35.2322C32.9575 29.0655 30.9156 30.0585 29.5199 31.633C28.1242 30.0585 26.0823 29.0655 23.8077 29.0655ZM49.8283 30.9617C47.1791 30.9617 44.8456 32.3087 43.481 34.3524C42.1165 32.3085 39.783 30.9617 37.1332 30.9617H35.8668C33.2179 30.9617 30.8846 32.3084 29.5199 34.3517C28.1552 32.3084 25.822 30.9617 23.1731 30.9617C22.4721 30.9617 21.9038 31.5277 21.9038 32.2258V51.1875C21.9038 51.8857 22.4721 52.4516 23.1731 52.4516H29.5206L29.521 52.4516C30.2211 52.4507 30.7885 51.8851 30.7885 51.1875V38.5464C30.7885 35.7539 33.0622 33.4899 35.8668 33.4899H37.1332C39.9385 33.4899 42.2115 35.753 42.2115 38.5464V51.1875C42.2115 51.8857 42.7798 52.4516 43.4808 52.4516H49.8283C50.5293 52.4516 51.0975 51.8857 51.0975 51.1875V32.2258C51.0975 31.5277 50.5293 30.9617 49.8283 30.9617ZM44.75 46.0746L48.4131 43.237C48.4601 43.2006 48.5089 43.168 48.5591 43.1391V40.0064L44.75 42.9571V46.0746ZM48.4131 36.9165L44.75 39.7542V38.5464C44.75 36.6904 45.7544 35.0679 47.2515 34.1884C48.0069 33.7446 48.5591 33.6163 48.5591 33.6163V36.8187C48.5089 36.8475 48.4601 36.8801 48.4131 36.9165ZM44.75 49.2775V49.9234H48.5591V46.3269L44.75 49.2775ZM24.5869 43.237C24.5403 43.201 24.492 43.1686 24.4423 43.1399V40.0074L28.2514 42.9581V46.0757L24.5869 43.237ZM24.4423 36.8194C24.492 36.8481 24.5404 36.8804 24.587 36.9165L28.2514 39.7551V38.5464C28.2514 36.1861 26.627 34.2034 24.4423 33.6462V36.8194ZM24.4423 49.9234V46.3279L28.2514 49.2786V49.9234H24.4423Z" fill="white"/>
<defs>
<filter id="filter0_dd" x="0" y="0" width="72" height="72" filterUnits="userSpaceOnUse" color-interpolation-filters="sRGB">
<feFlood flood-opacity="0" result="BackgroundImageFix"/>
<feColorMatrix in="SourceAlpha" type="matrix" values="0 0 0 0 0 0 0 0 0 0 0 0 0 0 0 0 0 0 127 0"/>
<feOffset dy="4"/>
<feGaussianBlur stdDeviation="3"/>
<feColorMatrix type="matrix" values="0 0 0 0 0 0 0 0 0 0 0 0 0 0 0 0 0 0 0.05 0"/>
<feBlend mode="normal" in2="BackgroundImageFix" result="effect1_dropShadow"/>
<feColorMatrix in="SourceAlpha" type="matrix" values="0 0 0 0 0 0 0 0 0 0 0 0 0 0 0 0 0 0 127 0"/>
<feOffset dy="1"/>
<feGaussianBlur stdDeviation="1.5"/>
<feColorMatrix type="matrix" values="0 0 0 0 0 0 0 0 0 0 0 0 0 0 0 0 0 0 0.1 0"/>
<feBlend mode="normal" in2="effect1_dropShadow" result="effect2_dropShadow"/>
<feBlend mode="normal" in="SourceGraphic" in2="effect2_dropShadow" result="shape"/>
</filter>
<linearGradient id="paint0_linear" x1="-18.875" y1="29.4375" x2="36" y2="89.4375" gradientUnits="userSpaceOnUse">
<stop stop-color="#3142C6"/>
<stop offset="1" stop-color="#AF61D1"/>
</linearGradient>
</defs>
</svg>