<svg width="58" height="58" viewBox="0 0 58 58" fill="none" xmlns="http://www.w3.org/2000/svg">
<g filter="url(#filter0_d)">
<rect x="4" y="2" width="50" height="50" rx="14" fill="url(#paint0_linear)"/>
</g>
<path fill-rule="evenodd" clip-rule="evenodd" d="M30.9844 36.4145C31.2334 36.7799 31.3784 37.2179 31.3784 37.6889C31.3784 38.9653 30.3135 40 29 40C27.6865 40 26.6216 38.9653 26.6216 37.6889C26.6216 37.2179 26.7666 36.7799 27.0156 36.4145L21.7361 32.3644C21.3511 32.625 20.8831 32.7778 20.3784 32.7778C19.0648 32.7778 18 31.7431 18 30.4667C18 29.3384 18.832 28.3989 19.9324 28.1961V25.8039C18.832 25.6011 18 24.6616 18 23.5333C18 22.2569 19.0648 21.2222 20.3784 21.2222C20.8831 21.2222 21.3511 21.375 21.7361 21.6356L27.0156 17.5855C26.7666 17.2201 26.6216 16.7821 26.6216 16.3111C26.6216 15.0347 27.6865 14 29 14C30.3135 14 31.3784 15.0347 31.3784 16.3111C31.3784 16.7821 31.2334 17.2201 30.9844 17.5855L36.2639 21.6356C36.6489 21.375 37.1169 21.2222 37.6216 21.2222C38.9352 21.2222 40 22.2569 40 23.5333C40 24.6616 39.168 25.6011 38.0676 25.8039V28.1961C39.168 28.3989 40 29.3384 40 30.4667C40 31.7431 38.9352 32.7778 37.6216 32.7778C37.1169 32.7778 36.6489 32.625 36.2639 32.3644L30.9844 36.4145ZM28.5541 32.7372V35.4183C28.2202 35.4799 27.911 35.6092 27.6423 35.7911L22.3628 31.741C22.6118 31.3757 22.7568 30.9376 22.7568 30.4667C22.7568 29.9991 22.6138 29.5639 22.3681 29.2001L24.6892 27.5383L27.0102 29.2001C26.7645 29.5639 26.6216 29.9991 26.6216 30.4667C26.6216 31.5949 27.4537 32.5344 28.5541 32.7372ZM30.3577 35.7911C30.089 35.6092 29.7798 35.4799 29.4459 35.4183V32.7372C30.5463 32.5344 31.3784 31.5949 31.3784 30.4667C31.3784 29.9991 31.2355 29.5639 30.9898 29.2001L33.3108 27.5383L35.6319 29.2001C35.3862 29.5639 35.2432 29.9991 35.2432 30.4667C35.2432 30.9376 35.3882 31.3757 35.6372 31.741L30.3577 35.7911ZM23.9374 27L21.7413 28.5724C21.4714 28.3887 21.1604 28.2581 20.8243 28.1961V25.8039C21.1604 25.7419 21.4714 25.6113 21.7413 25.4276L23.9374 27ZM22.3681 24.7999L24.6892 26.4617L27.0102 24.7999C26.7645 24.4361 26.6216 24.0009 26.6216 23.5333C26.6216 22.4051 27.4537 21.4656 28.5541 21.2628V18.5817C28.2202 18.5201 27.911 18.3908 27.6423 18.2089L22.3628 22.259C22.6118 22.6243 22.7568 23.0624 22.7568 23.5333C22.7568 24.0009 22.6138 24.4361 22.3681 24.7999ZM37.1757 28.1961C36.8396 28.2581 36.5286 28.3887 36.2587 28.5724L34.0626 27L36.2587 25.4276C36.5286 25.6113 36.8396 25.7419 37.1757 25.8039V28.1961ZM35.6372 22.259L30.3577 18.2089C30.089 18.3908 29.7798 18.5201 29.4459 18.5817V21.2628C30.5463 21.4656 31.3784 22.4051 31.3784 23.5333C31.3784 24.0009 31.2355 24.4361 30.9898 24.7999L33.3108 26.4617L35.6319 24.7999C35.3862 24.4361 35.2432 24.0009 35.2432 23.5333C35.2432 23.0624 35.3882 22.6243 35.6372 22.259ZM29 28.1556C28.493 28.1556 28.023 28.3097 27.6371 28.5724L25.441 27L27.6371 25.4276C28.023 25.6903 28.493 25.8444 29 25.8444C29.507 25.8444 29.977 25.6903 30.3629 25.4276L32.559 27L30.3629 28.5724C29.977 28.3097 29.507 28.1556 29 28.1556ZM29 24.9778C29.821 24.9778 30.4865 24.3311 30.4865 23.5333C30.4865 22.7356 29.821 22.0889 29 22.0889C28.179 22.0889 27.5135 22.7356 27.5135 23.5333C27.5135 24.3311 28.179 24.9778 29 24.9778ZM30.4865 30.4667C30.4865 31.2644 29.821 31.9111 29 31.9111C28.179 31.9111 27.5135 31.2644 27.5135 30.4667C27.5135 29.6689 28.179 29.0222 29 29.0222C29.821 29.0222 30.4865 29.6689 30.4865 30.4667ZM37.6216 24.9778C38.4426 24.9778 39.1081 24.3311 39.1081 23.5333C39.1081 22.7356 38.4426 22.0889 37.6216 22.0889C36.8007 22.0889 36.1351 22.7356 36.1351 23.5333C36.1351 24.3311 36.8007 24.9778 37.6216 24.9778ZM39.1081 30.4667C39.1081 31.2644 38.4426 31.9111 37.6216 31.9111C36.8007 31.9111 36.1351 31.2644 36.1351 30.4667C36.1351 29.6689 36.8007 29.0222 37.6216 29.0222C38.4426 29.0222 39.1081 29.6689 39.1081 30.4667ZM20.3784 24.9778C21.1993 24.9778 21.8649 24.3311 21.8649 23.5333C21.8649 22.7356 21.1993 22.0889 20.3784 22.0889C19.5574 22.0889 18.8919 22.7356 18.8919 23.5333C18.8919 24.3311 19.5574 24.9778 20.3784 24.9778ZM21.8649 30.4667C21.8649 31.2644 21.1993 31.9111 20.3784 31.9111C19.5574 31.9111 18.8919 31.2644 18.8919 30.4667C18.8919 29.6689 19.5574 29.0222 20.3784 29.0222C21.1993 29.0222 21.8649 29.6689 21.8649 30.4667ZM29 39.1333C29.821 39.1333 30.4865 38.4866 30.4865 37.6889C30.4865 36.8911 29.821 36.2444 29 36.2444C28.179 36.2444 27.5135 36.8911 27.5135 37.6889C27.5135 38.4866 28.179 39.1333 29 39.1333ZM30.4865 16.3111C30.4865 17.1089 29.821 17.7556 29 17.7556C28.179 17.7556 27.5135 17.1089 27.5135 16.3111C27.5135 15.5134 28.179 14.8667 29 14.8667C29.821 14.8667 30.4865 15.5134 30.4865 16.3111Z" fill="white"/>
<defs>
<filter id="filter0_d" x="0" y="0" width="58" height="58" filterUnits="userSpaceOnUse" color-interpolation-filters="sRGB">
<feFlood flood-opacity="0" result="BackgroundImageFix"/>
<feColorMatrix in="SourceAlpha" type="matrix" values="0 0 0 0 0 0 0 0 0 0 0 0 0 0 0 0 0 0 127 0"/>
<feOffset dy="2"/>
<feGaussianBlur stdDeviation="2"/>
<feColorMatrix type="matrix" values="0 0 0 0 0.501961 0 0 0 0 0.12549 0 0 0 0 0 0 0 0 0.15 0"/>
<feBlend mode="normal" in2="BackgroundImageFix" result="effect1_dropShadow"/>
<feBlend mode="normal" in="SourceGraphic" in2="effect1_dropShadow" result="shape"/>
</filter>
<linearGradient id="paint0_linear" x1="-21" y1="27" x2="29" y2="77" gradientUnits="userSpaceOnUse">
<stop stop-color="#F2C314"/>
<stop offset="1" stop-color="#FC3832"/>
</linearGradient>
</defs>
</svg>
