<svg width="58" height="58" viewBox="0 0 58 58" fill="none" xmlns="http://www.w3.org/2000/svg">
<g filter="url(#filter0_d)">
<rect x="4" y="2" width="50" height="50" rx="14" fill="url(#paint0_linear)"/>
</g>
<path fill-rule="evenodd" clip-rule="evenodd" d="M33.2703 17.8649C33.2703 20.5517 35.4483 22.7297 38.1351 22.7297C40.8219 22.7297 43 20.5517 43 17.8649C43 15.1781 40.8219 13 38.1351 13C35.4483 13 33.2703 15.1781 33.2703 17.8649ZM31.3319 17.5405C31.3528 17.0956 31.4163 16.6618 31.5186 16.2432H22.892C20.7425 16.2432 19 17.9861 19 20.1352V33.108C19 35.2575 20.7429 37 22.892 37H35.8648C38.0142 37 39.7568 35.2571 39.7568 33.108V24.4814C39.3382 24.5837 38.9044 24.6472 38.4595 24.6681V33.108C38.4595 34.5408 37.2976 35.7027 35.8648 35.7027H22.892C21.4592 35.7027 20.2973 34.5409 20.2973 33.108V20.1352C20.2973 18.7025 21.4591 17.5405 22.892 17.5405H31.3319Z" fill="white"/>
<defs>
<filter id="filter0_d" x="0" y="0" width="58" height="58" filterUnits="userSpaceOnUse" color-interpolation-filters="sRGB">
<feFlood flood-opacity="0" result="BackgroundImageFix"/>
<feColorMatrix in="SourceAlpha" type="matrix" values="0 0 0 0 0 0 0 0 0 0 0 0 0 0 0 0 0 0 127 0"/>
<feOffset dy="2"/>
<feGaussianBlur stdDeviation="2"/>
<feColorMatrix type="matrix" values="0 0 0 0 0.0313726 0 0 0 0 0.14902 0 0 0 0 0.658824 0 0 0 0.15 0"/>
<feBlend mode="normal" in2="BackgroundImageFix" result="effect1_dropShadow"/>
<feBlend mode="normal" in="SourceGraphic" in2="effect1_dropShadow" result="shape"/>
</filter>
<linearGradient id="paint0_linear" x1="-21" y1="27" x2="29" y2="77" gradientUnits="userSpaceOnUse">
<stop stop-color="#32FBFC"/>
<stop offset="1" stop-color="#3214F2"/>
</linearGradient>
</defs>
</svg>
