<svg xmlns="http://www.w3.org/2000/svg" x="0px" y="0px" width="64" height="64" viewBox="0 0 172 172">
    <g fill="none" fill-rule="nonzero" stroke="none" stroke-width="1" stroke-linecap="butt" stroke-linejoin="miter"
        stroke-miterlimit="10" stroke-dasharray="" stroke-dashoffset="0" font-family="none" font-weight="none"
        font-size="none" text-anchor="none">
        <path d="M0,172v-172h172v172z" fill="none"></path>
        <g>
            <path
                d="M2.65391,86c0,-46.02344 37.32266,-83.34609 83.34609,-83.34609c46.02344,0 83.34609,37.32266 83.34609,83.34609c0,46.02344 -37.32266,83.34609 -83.34609,83.34609c-46.02344,0 -83.34609,-37.32266 -83.34609,-83.34609z"
                fill="#e67e22"></path>
            <path
                d="M128.32813,54.79141c-11.69062,-11.69062 -30.6375,-11.69062 -42.32812,0v0c-11.69062,-11.69062 -30.6375,-11.69062 -42.32812,0c-11.69062,11.69062 -10.01094,29.15937 0,42.32813c10.58203,13.94141 29.93203,36.91953 42.32813,36.91953v0c12.39609,0 31.74609,-23.01172 42.32813,-36.91953c10.01094,-13.16875 11.69063,-30.6375 0,-42.32813z"
                fill="#ffffff"></path>
        </g>
    </g>
</svg>