<?xml version="1.0" encoding="utf-8"?>
<!-- Generator: Adobe Illustrator 24.1.1, SVG Export Plug-In . SVG Version: 6.00 Build 0)  -->
<svg version="1.1" id="Layer_1" xmlns="http://www.w3.org/2000/svg" xmlns:xlink="http://www.w3.org/1999/xlink" x="0px" y="0px"
	 viewBox="0 0 24 24" style="enable-background:new 0 0 24 24;" xml:space="preserve">
<style type="text/css">
	.st0{}
</style>
<path fill="#2ED5FF" class="st0" d="M15,6H9C8.4,6,8,6.4,8,7v4c0,0.6,0.4,1,1,1h6c0.6,0,1-0.4,1-1V7C16,6.4,15.6,6,15,6z M14,10h-4V8h4V10z M17,2H5
	C4.4,2,4,2.4,4,3v18c0,0.6,0.4,1,1,1h12c1.7,0,3-1.3,3-3V5C20,3.3,18.7,2,17,2z M18,19c0,0.6-0.4,1-1,1H6V4h11c0.6,0,1,0.4,1,1V19z"
	/>
</svg>
