<?xml version="1.0" encoding="utf-8"?>
<!-- Generator: Adobe Illustrator 24.1.1, SVG Export Plug-In . SVG Version: 6.00 Build 0)  -->
<svg version="1.1" id="Layer_1" xmlns="http://www.w3.org/2000/svg" xmlns:xlink="http://www.w3.org/1999/xlink" x="0px" y="0px"
	 viewBox="0 0 24 24" style="enable-background:new 0 0 24 24;" xml:space="preserve">
<style type="text/css">
	.st0{fill:#2ED5FF;}
</style>
<path class="st0" d="M7,14.5C7,14.5,7,14.5,7,14.5c0.6,0,1,0.4,1,1v4c0,0,0,0.1,0,0.1c0,0.1,0,0.1,0,0.2c0,0.1-0.1,0.2-0.1,0.3
	c0,0,0,0,0,0c0,0,0,0,0,0c-0.2,0.3-0.5,0.4-0.8,0.4H3c-0.6,0-1-0.4-1-1s0.4-1,1-1h1.4C2.9,16.7,2,14.4,2,12c0-0.4,0-0.7,0.1-1.1
	c0,0,0,0,0,0c0.1-0.5,0.6-0.9,1.1-0.9c0.5,0.1,0.9,0.6,0.9,1.1C4,11.4,4,11.7,4,12c0,1.9,0.7,3.8,2,5.3v-1.8c0,0,0,0,0,0
	C6,14.9,6.4,14.5,7,14.5z M8.5,6L8.5,6c0.6,0,1,0.4,1,1S9,8,8.5,8h-4c0,0,0,0,0,0C4.4,8,4.3,8,4.2,7.9c-0.1,0-0.1,0-0.2-0.1
	c0,0,0,0,0,0c0,0,0,0,0,0C3.8,7.7,3.7,7.7,3.7,7.6l0,0C3.6,7.4,3.6,7.3,3.5,7.2l0,0c0-0.1,0-0.1,0-0.2V3c0-0.6,0.4-1,1-1s1,0.4,1,1
	v1.4C7.3,2.9,9.6,2,12,2c0.4,0,0.7,0,1.1,0.1l0,0c0.5,0.1,0.9,0.6,0.9,1.1c-0.1,0.5-0.6,0.9-1.1,0.9C12.6,4,12.3,4,12,4
	C10,4,8.2,4.7,6.7,6H8.5z M20.5,16.8L20.5,16.8c0,0.1,0,0.1,0,0.2v4c0,0.6-0.4,1-1,1s-1-0.4-1-1v-1.4C16.7,21.1,14.4,22,12,22
	c-0.4,0-0.7,0-1.1-0.1c-0.5-0.1-0.9-0.6-0.9-1.1c0.1-0.5,0.6-0.9,1.1-0.9c0.3,0,0.6,0.1,0.9,0.1c1.9,0,3.8-0.7,5.3-2h-1.8
	c-0.6,0-1-0.4-1-1s0.4-1,1-1h4c0,0,0.1,0,0.1,0c0.1,0,0.3,0.1,0.4,0.1c0,0,0,0,0,0c0,0,0,0,0,0c0.1,0.1,0.2,0.2,0.2,0.2l0,0
	C20.4,16.6,20.4,16.7,20.5,16.8z M21,5.5h-1.4C21.1,7.3,22,9.6,22,12c0,0.4,0,0.7-0.1,1.1c-0.1,0.5-0.5,0.9-1,0.9c0,0-0.1,0-0.1,0
	c-0.5-0.1-0.9-0.6-0.9-1.1c0-0.3,0.1-0.6,0.1-0.9c0-1.9-0.7-3.8-2-5.3v1.8c0,0.6-0.4,1-1,1s-1-0.4-1-1v-4c0,0,0-0.1,0-0.1
	c0-0.1,0.1-0.3,0.1-0.4c0,0,0,0,0,0c0,0,0,0,0,0c0.1-0.1,0.1-0.2,0.2-0.2l0,0c0.1-0.1,0.2-0.1,0.3-0.1l0,0c0.1,0,0.1,0,0.2,0h4
	c0.6,0,1,0.4,1,1S21.5,5.5,21,5.5z"/>
</svg>
