<svg width="21" height="21" viewBox="0 0 21 21" fill="none" xmlns="http://www.w3.org/2000/svg">
<path fill-rule="evenodd" clip-rule="evenodd" d="M10.5 21C16.299 21 21 16.299 21 10.5C21 4.70101 16.299 0 10.5 0C4.70101 0 0 4.70101 0 10.5C0 16.299 4.70101 21 10.5 21ZM8.30662 6.79891C8.11115 6.59668 8.00351 6.33136 8.00544 6.05649L8.00919 6.05649C8.00664 5.78273 8.11351 5.51827 8.30814 5.31673C8.49682 5.12011 8.76351 5.00791 9.04321 5.00749C9.3229 5.00707 9.58993 5.11846 9.7792 5.31451L13.7063 9.26153C14.114 9.67811 14.115 10.3238 13.7085 10.7416L9.78962 14.699C9.60093 14.8956 9.33425 15.0078 9.05455 15.0082C8.77485 15.0087 8.50783 14.8973 8.31855 14.7012C7.91269 14.2831 7.91172 13.6384 8.31632 13.219L11.5012 10.0042L8.30662 6.79891Z" fill="white" fill-opacity="0.4"/>
</svg>
