<svg width="15" height="16" viewBox="0 0 15 16" fill="none" xmlns="http://www.w3.org/2000/svg">
<path d="M5.86776 2.1219L5.82389 6.08966L5.10886 5.36471C4.81668 5.06671 4.38772 4.94723 3.98356 5.05127C3.5794 5.15531 3.26144 5.46707 3.14946 5.8691C3.03748 6.27113 3.14849 6.70237 3.44068 7.00036L6.13841 9.75236C6.35683 9.97533 6.65547 10.1015 6.9676 10.1027C7.27972 10.1039 7.57932 9.98002 7.79944 9.75872L10.5371 6.99883C10.8319 6.70339 10.9467 6.27312 10.8383 5.87009C10.7299 5.46706 10.4146 5.1525 10.0114 5.0449C9.60812 4.9373 9.17809 5.05301 8.88327 5.34844L8.16104 6.0895L8.20462 2.14774C8.19312 1.51554 7.68101 1.00707 7.04874 1.00008C6.41647 0.993084 5.89324 1.4901 5.86776 2.1219Z" fill="black"/>
<path d="M13.623 14.623C13.8648 14.382 14.0005 14.0544 14 13.713V10.488C14.013 10.0198 13.7707 9.58152 13.3673 9.34358C12.9639 9.10565 12.4631 9.10565 12.0597 9.34358C11.6562 9.58152 11.4139 10.0198 11.427 10.488V12.427H2.57399V10.488C2.57399 9.77721 1.99778 9.201 1.28699 9.201C0.576196 9.201 -1.33514e-05 9.77721 -1.33514e-05 10.488V13.713C-1.33514e-05 14.0543 0.13558 14.3817 0.37694 14.623C0.618299 14.8644 0.945653 15 1.28699 15H12.713C13.0544 15.0005 13.382 14.8648 13.623 14.623Z" fill="black"/>
</svg>
