<svg width="28" height="28" viewBox="0 0 28 28" fill="none" xmlns="http://www.w3.org/2000/svg">
<g opacity="0.45">
<path fill-rule="evenodd" clip-rule="evenodd" d="M19.0588 3.29277C14.9949 -0.799511 8.50543 -1.11633 4.06668 2.56085C-0.372068 6.23803 -1.30738 12.7057 1.90591 17.5027C5.11919 22.2997 11.4294 23.8559 16.4839 21.098L23.1722 27.49C23.8976 28.1823 25.039 28.168 25.747 27.4578L27.4636 25.731C28.1788 25.0073 28.1788 23.8384 27.4636 23.1147L20.9734 16.5738C23.3274 12.2084 22.5485 6.80565 19.0588 3.29277ZM15.7437 15.8291C13.8941 17.6907 11.1118 18.248 8.69436 17.2411C6.27698 16.2341 4.70071 13.8614 4.70071 11.2294C4.70071 8.59737 6.27698 6.2246 8.69436 5.21768C11.1118 4.21077 13.8941 4.76805 15.7437 6.62963C18.2615 9.17312 18.2615 13.2856 15.7437 15.8291V15.8291Z" fill="black"/>
</g>
</svg>
