<svg width="25" height="28" viewBox="0 0 25 28" fill="none" xmlns="http://www.w3.org/2000/svg">
<path opacity="0.45" fill-rule="evenodd" clip-rule="evenodd" d="M6.08168 4.22106C7.15736 1.66519 9.69059 -0.000808683 12.5 0C14.3419 0 16.1083 0.720705 17.4105 2.00351C18.7128 3.28632 19.4441 5.0261 19.4435 6.84C19.4435 9.6067 17.7511 12.1009 15.1555 13.1595C12.5598 14.2181 9.57225 13.6325 7.58599 11.6759C5.59973 9.71926 5.006 6.77693 6.08168 4.22106ZM0 21.886V23.898C0.000537781 24.9871 0.44067 26.0314 1.22346 26.8008C2.00625 27.5702 3.06748 28.0016 4.17344 28H20.8266C21.9325 28.0016 22.9938 27.5702 23.7765 26.8008C24.5593 26.0314 24.9995 24.9871 25 23.898V21.886C24.9228 20.3921 24.0109 19.0635 22.632 18.436C16.1298 15.8639 8.8702 15.8639 2.36799 18.436C0.98914 19.0635 0.0772209 20.3921 0 21.886Z" fill="black"/>
</svg>
