<svg width="34" height="28" viewBox="0 0 34 28" fill="none" xmlns="http://www.w3.org/2000/svg">
<g opacity="0.45">
<path fill-rule="evenodd" clip-rule="evenodd" d="M3.73857 2.56596C4.39983 1.01226 5.95707 -0.000491594 7.68409 0C8.81635 0 9.90222 0.438113 10.7027 1.21792C11.5032 1.99773 11.9528 3.05534 11.9525 4.158C11.9525 5.83986 10.9121 7.3561 9.31647 7.99961C7.72087 8.64311 5.88432 8.28715 4.66331 7.09772C3.44231 5.90829 3.07732 4.11966 3.73857 2.56596ZM0 13.3044V14.5275C0.000330589 15.1896 0.270892 15.8244 0.752093 16.2921C1.23329 16.7598 1.88567 17.022 2.56553 17.021H12.8027C13.4825 17.022 14.1349 16.7598 14.6161 16.2921C15.0973 15.8244 15.3679 15.1896 15.3682 14.5275V13.3044C15.3207 12.3962 14.7601 11.5886 13.9125 11.2071C9.91543 9.64359 5.45275 9.64359 1.45567 11.2071C0.608051 11.5886 0.0474698 12.3962 0 13.3044Z" fill="black"/>
<path fill-rule="evenodd" clip-rule="evenodd" d="M14.9086 7.57685C15.8122 5.53215 17.9401 4.19935 20.3 4.2C21.8472 4.2 23.331 4.77656 24.4248 5.80281C25.5187 6.82905 26.133 8.22088 26.1326 9.672C26.1326 11.8854 24.7109 13.8808 22.5306 14.7276C20.3502 15.5745 17.8407 15.106 16.1722 13.5407C14.5038 11.9754 14.005 9.62154 14.9086 7.57685ZM9.79999 21.7088V23.3184C9.80044 24.1897 10.1702 25.0251 10.8277 25.6406C11.4852 26.2561 12.3767 26.6013 13.3057 26.6H27.2943C28.2233 26.6013 29.1147 26.2561 29.7723 25.6406C30.4298 25.0251 30.7995 24.1897 30.8 23.3184V21.7088C30.7351 20.5137 29.9691 19.4508 28.8109 18.9488C23.349 16.8911 17.251 16.8911 11.7891 18.9488C10.6309 19.4508 9.86485 20.5137 9.79999 21.7088Z" fill="black"/>
</g>
</svg>
