<svg width="16" height="14" viewBox="0 0 16 14" fill="none" xmlns="http://www.w3.org/2000/svg">
<path fill-rule="evenodd" clip-rule="evenodd" d="M10.585 4.39099L14.177 4.77199C14.5474 4.80928 14.8587 5.06633 14.9654 5.42299C15.0721 5.77964 14.9531 6.16542 14.664 6.39999L11.8 8.75499L12.69 12.713C12.7703 13.0728 12.628 13.4458 12.3286 13.6607C12.0291 13.8757 11.6302 13.8912 11.315 13.7L7.99999 11.686L4.68499 13.701C4.36978 13.8922 3.9709 13.8767 3.67142 13.6617C3.37194 13.4468 3.2297 13.0738 3.30999 12.714L4.19999 8.75499L1.33599 6.39999C1.04692 6.16542 0.927906 5.77964 1.03459 5.42299C1.14128 5.06633 1.4526 4.80928 1.82299 4.77199L5.41499 4.38799L7.16899 0.687986C7.32139 0.367182 7.64483 0.16275 7.99999 0.16275C8.35515 0.16275 8.67859 0.367182 8.83099 0.687986L10.585 4.39099ZM9.90499 8.22399C9.8628 8.0346 9.93041 7.83756 10.08 7.71399L11.856 6.10199L9.58199 5.86099C9.40374 5.8412 9.24834 5.73079 9.17099 5.56899L7.93999 3.22499L6.82999 5.56899C6.75201 5.73069 6.5964 5.84098 6.41799 5.86099L4.10999 6.22099L5.92499 7.71399C6.07457 7.83756 6.14218 8.0346 6.09999 8.22399L5.53199 10.731L7.73199 9.52599C7.81307 9.47773 7.90564 9.45217 7.99999 9.45199C8.09456 9.45325 8.18695 9.48059 8.26699 9.53099L10.467 10.731L9.90499 8.22399Z" fill="black"/>
</svg>
