<?xml version="1.0" encoding="utf-8"?>
<!-- Generator: Adobe Illustrator 24.1.1, SVG Export Plug-In . SVG Version: 6.00 Build 0)  -->
<svg version="1.1" id="Layer_1" xmlns="http://www.w3.org/2000/svg" xmlns:xlink="http://www.w3.org/1999/xlink" x="0px" y="0px"
	 viewBox="0 0 24 24" style="enable-background:new 0 0 24 24;" xml:space="preserve">
<style type="text/css">
	.st0{fill:#2ED5FF;stroke:#2ED5FF;stroke-width:0.5;stroke-miterlimit:10;}
</style>
<path class="st0" d="M13.3,13.8L13,14.1v-2.6c0-0.6-0.4-1-1-1s-1,0.4-1,1v2.6l-0.3-0.3c-0.4-0.4-1-0.4-1.4,0s-0.4,1,0,1.4l2,2
	c0.1,0.1,0.2,0.2,0.3,0.2c0.2,0.1,0.5,0.1,0.8,0c0.1,0,0.2-0.1,0.3-0.2l2-2c0.4-0.4,0.4-1,0-1.4S13.7,13.4,13.3,13.8z M19,5.5h-6.3
	l-0.3-1c-0.4-1.2-1.6-2-2.8-2H5c-1.7,0-3,1.3-3,3v13c0,1.7,1.3,3,3,3h14c1.7,0,3-1.3,3-3v-10C22,6.8,20.7,5.5,19,5.5z M20,18.5
	c0,0.6-0.4,1-1,1H5c-0.6,0-1-0.4-1-1v-13c0-0.6,0.4-1,1-1h4.6c0.4,0,0.8,0.3,0.9,0.7l0.5,1.6c0.1,0.4,0.5,0.7,0.9,0.7h7
	c0.6,0,1,0.4,1,1V18.5z"/>
</svg>
